<svg xmlns="http://www.w3.org/2000/svg" width="22" height="22.002" viewBox="0 0 22 22.002">
  <path id="home-run_1_" data-name="home-run (1)" d="M21.409,9.57l0,0L12.432.594a2.025,2.025,0,0,0-2.865,0L.6,9.564l-.009.009a2.025,2.025,0,0,0,1.348,3.451q.031,0,.062,0h.358v6.6A2.373,2.373,0,0,0,4.727,22H8.238a.645.645,0,0,0,.645-.645V16.179A1.083,1.083,0,0,1,9.964,15.1h2.071a1.083,1.083,0,0,1,1.082,1.082v5.178a.645.645,0,0,0,.645.645h3.511a2.373,2.373,0,0,0,2.371-2.37v-6.6h.332A2.026,2.026,0,0,0,21.409,9.57Zm0,0" transform="translate(0.001)" fill="#fff"/>
</svg>
